<?xml version="1.0" encoding="UTF-8"?>
<svg version="1.1" xmlns="http://www.w3.org/2000/svg" width="3000" height="3000">
<path d="M0 0 C11.55 0 23.1 0 35 0 C39.50057895 11.25144738 39.50057895 11.25144738 41.03613281 15.94140625 C41.38522705 17.00248093 41.73432129 18.0635556 42.09399414 19.15678406 C42.46000732 20.28067032 42.82602051 21.40455658 43.203125 22.5625 C43.59781982 23.76618729 43.99251465 24.96987457 44.39916992 26.21003723 C45.4654001 29.46273149 46.52730309 32.71682279 47.58821106 35.97125626 C48.25528866 38.01621262 48.9237343 40.06071667 49.59265137 42.10507202 C55.88442491 61.33429098 62.08684055 80.59072406 68.22320557 99.87014771 C73.7070329 117.08922787 79.37347711 134.24259039 85.11523438 151.37719727 C90.32309018 166.92407443 95.42773769 182.5028543 100.48486328 198.09936523 C101.02636074 199.76937058 101.56786441 201.43937391 102.109375 203.109375 C102.36278656 203.89111588 102.61619812 204.67285675 102.87728882 205.47828674 C104.88477114 211.66349244 106.92693776 217.8364245 109 224 C117.83072637 198.77342268 126.58950603 173.52275869 135.29074097 148.2512207 C141.05995649 131.4971079 146.86600499 114.75663113 152.72012329 98.03201294 C157.44614602 84.52408944 162.08510077 70.98800363 166.6875 57.4375 C171.34531071 43.72447432 176.05393588 30.03156742 180.875 16.375 C181.13252045 15.64441376 181.39004089 14.91382751 181.65536499 14.16110229 C182.37003279 12.13541428 183.08680594 10.11048853 183.8046875 8.0859375 C184.20671387 6.9520459 184.60874023 5.8181543 185.02294922 4.64990234 C186 2 186 2 187 0 C196.24 0 205.48 0 215 0 C215.90878906 2.67738281 216.81757812 5.35476563 217.75390625 8.11328125 C223.78895072 25.87421097 229.8471153 43.6251918 236.06344604 61.32357788 C243.47799204 82.43695127 250.64181904 103.63221446 257.78773117 124.83757782 C264.84473379 145.77852077 271.96508596 166.69258389 279.29345703 187.54052734 C282.91628566 197.85112835 286.45616829 208.18191985 289.83398438 218.57592773 C290.11306641 219.43001221 290.39214844 220.28409668 290.6796875 221.1640625 C290.91413574 221.89061035 291.14858398 222.6171582 291.39013672 223.36572266 C291.87683126 225.01525255 291.87683126 225.01525255 293 226 C293.31412842 225.03255859 293.62825684 224.06511719 293.9519043 223.06835938 C301.75883557 199.03161194 309.61478938 175.01115867 317.5 151 C323.3541724 133.17342065 329.20192932 115.34492748 335 97.5 C340.77286802 79.73382653 346.58862853 61.98180453 352.41296387 44.23245239 C353.11734761 42.08582091 353.82162271 39.9391538 354.52587891 37.79248047 C355.6425315 34.38893077 356.75954746 30.98550052 357.87685776 27.58216667 C358.48552497 25.72804838 359.0939781 23.87385981 359.7024231 22.01966858 C360.07793304 20.87630539 360.45344299 19.7329422 360.84033203 18.55493164 C361.16228546 17.57432266 361.48423889 16.59371368 361.81594849 15.58338928 C363.53349112 10.38545339 365.26885904 5.19342288 367 0 C378.55 0 390.1 0 402 0 C400.25470521 6.39941424 398.57812562 12.50478185 396.41796875 18.72265625 C395.90426614 20.21157794 395.39059613 21.70051087 394.87695312 23.18945312 C394.4671521 24.37099976 394.4671521 24.37099976 394.04907227 25.57641602 C387.45252056 44.61089775 381.07398605 63.71714719 374.72011948 82.83356094 C368.24359984 102.31780704 361.74645098 121.79279194 355.07226562 141.21044922 C349.38870861 157.75538001 343.86894285 174.35430017 338.35016251 190.95470047 C332.11290948 209.71528661 325.82158944 228.45575056 319.40039062 247.15429688 C319.00948746 248.29280594 319.00948746 248.29280594 318.61068726 249.45431519 C318.11214786 250.90574814 317.61316398 252.35702852 317.11367798 253.80813599 C315.90471021 257.32808479 314.7135485 260.8528415 313.55029297 264.38818359 C313.20447426 265.43778511 313.20447426 265.43778511 312.85166931 266.5085907 C312.22427927 268.419076 311.60112777 270.33095172 310.97827148 272.24291992 C310 275 310 275 309 276 C306.70848583 276.08790975 304.41427476 276.10694038 302.12109375 276.09765625 C301.09110008 276.09553383 301.09110008 276.09553383 300.04029846 276.09336853 C297.83932199 276.08775479 295.63844591 276.07520007 293.4375 276.0625 C291.94856917 276.05748676 290.45963676 276.05292355 288.97070312 276.04882812 C285.31376925 276.03778093 281.65689442 276.02050713 278 276 C274.41655496 267.70892748 271.30096327 259.34403521 268.4453125 250.77734375 C267.80446698 248.87393726 267.16361738 246.97053214 266.52259159 245.06718636 C265.84912009 243.0651449 265.17764656 241.0624436 264.50674438 239.05953979 C262.15716246 232.04649516 259.79097001 225.03904298 257.42578125 218.03125 C257.19039579 217.33340834 256.95501034 216.63556667 256.71249199 215.91657829 C252.657026 203.89601009 248.51865762 191.90617376 244.3125 179.9375 C238.37789157 163.03955206 232.59931944 146.09150293 226.85852051 129.12680054 C220.89578958 111.51198778 214.83553833 93.93368743 208.68164062 76.38476562 C208.23944435 75.12330719 208.23944435 75.12330719 207.78831482 73.83636475 C207.2487888 72.29820574 206.70855172 70.76029583 206.16737366 69.22271729 C204.39186002 64.16577627 202.68192425 59.08880618 201 54 C197.86942883 61.59159991 195.08798946 69.27903465 192.39453125 77.03515625 C191.95377779 78.29912834 191.51282923 79.56303242 191.07170105 80.82687378 C189.89362752 84.20395851 188.71840093 87.58202736 187.54376221 90.96030807 C186.31010992 94.50674305 185.07379345 98.05224923 183.83789062 101.59790039 C177.17435984 120.71976997 170.53580078 139.85031664 163.90454102 158.98339844 C158.31124407 175.119295 152.67853867 191.24114494 147.02877808 207.35734558 C144.1702439 215.51206452 141.315376 223.66806555 138.4609375 231.82421875 C138.22039642 232.51152887 137.97985535 233.198839 137.73202515 233.9069767 C136.51480623 237.38502761 135.29761821 240.86308933 134.08044434 244.34115601 C131.75434485 250.98792206 129.42793172 257.63457835 127.1015625 264.28125 C125.74804688 268.1484375 124.39453125 272.015625 123 276 C112.77 276 102.54 276 92 276 C89.67699701 270.19249254 87.42287152 264.52638089 85.40625 258.6328125 C85.17401733 257.95548065 84.94178467 257.2781488 84.70251465 256.58029175 C84.21060782 255.14379043 83.71993903 253.70686461 83.23046875 252.26953125 C82.5315855 250.21772962 81.82870853 248.16733834 81.125 246.1171875 C77.85426792 236.56239116 74.655746 226.98356537 71.46550608 217.40166843 C66.57366237 202.70997076 61.67078584 188.02197033 56.76269531 173.33569336 C50.49845761 154.59086851 44.23816343 135.84473045 37.98073196 117.09763241 C34.21775728 105.82429053 30.45303265 94.55153806 26.68457031 83.2800293 C23.36304491 73.3452921 20.04465393 63.40951454 16.73006511 53.47246081 C14.9842811 48.23901446 13.23692214 43.00610605 11.48575592 37.77445793 C9.85002532 32.88753634 8.21846348 27.99924353 6.59017181 23.10983849 C5.99187099 21.3157639 5.39201799 19.52220612 4.79052734 17.72919846 C3.97251992 15.29001662 3.1600273 12.84906689 2.34893799 10.40757751 C1.98768511 9.33692666 1.98768511 9.33692666 1.61913419 8.24464649 C0.6680791 5.36512476 0 3.05553193 0 0 Z " fill="#4CCCE3" transform="translate(436,1168)"/>
<path d="M0 0 C11.22 0 22.44 0 34 0 C35 1 35 1 35.12304783 2.9971323 C35.12166514 4.32313151 35.12166514 4.32313151 35.12025452 5.67591858 C35.12163201 6.68487969 35.12300951 7.69384081 35.12442875 8.7333765 C35.11903159 10.41428458 35.11903159 10.41428458 35.11352539 12.12915039 C35.11364593 13.31873321 35.11376646 14.50831602 35.11389065 15.7339468 C35.11314105 19.60520195 35.1055107 23.47640965 35.09765625 27.34765625 C35.09618698 29.72945126 35.09516618 32.11124659 35.09460449 34.49304199 C35.08934993 43.3495329 35.07538888 52.20601691 35.0625 61.0625 C35.041875 80.841875 35.02125 100.62125 35 121 C88.13 121 141.26 121 196 121 C196 81.07 196 41.14 196 0 C207.55 0 219.1 0 231 0 C231 91.08 231 182.16 231 276 C219.45 276 207.9 276 196 276 C196 234.75 196 193.5 196 151 C142.87 151 89.74 151 35 151 C35.03961953 191.76355636 35.03961953 191.76355636 35.09008789 232.52709961 C35.09460449 240.39367676 35.09460449 240.39367676 35.09544373 244.07106018 C35.09698388 246.65103541 35.10014105 249.23096251 35.10557556 251.81092834 C35.11367754 255.70851015 35.11390758 259.60607148 35.11352539 263.50366211 C35.1171235 264.66174094 35.12072161 265.81981977 35.12442875 267.01299191 C35.12305125 268.05553914 35.12167376 269.09808638 35.12025452 270.17222595 C35.12117631 271.0857228 35.1220981 271.99921965 35.12304783 272.94039822 C35 275 35 275 34 276 C22.78 276 11.56 276 0 276 C0 184.92 0 93.84 0 0 Z " fill="#4D92E3" transform="translate(1402,1168)"/>
<path d="M0 0 C146.31107069 0 146.31107069 0 167.375 19.75 C181.98977473 35.8074349 184.71027879 52.51223712 184.13183594 73.421875 C183.53098897 85.17177117 178.3673679 97.6326321 170 106 C169.34 106 168.68 106 168 106 C167.67 106.99 167.34 107.98 167 109 C160.99492278 114.22227251 154.43880555 118.20815199 147 121 C148.05058594 121.42410156 149.10117187 121.84820313 150.18359375 122.28515625 C158.31284482 125.6480491 165.456575 128.97351918 172 135 C172.91458984 135.77923828 172.91458984 135.77923828 173.84765625 136.57421875 C185.00359711 146.70038045 189.58293044 160.90979915 190.37890625 175.57421875 C190.97435295 194.64910039 187.78587454 211.78240182 175.1875 226.875 C160.1462739 242.63659133 139.79413939 247.02940866 119 250 C79.73 250 40.46 250 0 250 C0 167.5 0 85 0 0 Z M31 26 C31 54.05 31 82.1 31 111 C41.93125 111.020625 52.8625 111.04125 64.125 111.0625 C67.54762207 111.071604 70.97024414 111.08070801 74.49658203 111.09008789 C77.62583874 111.09343697 77.62583874 111.09343697 80.75509644 111.09544373 C82.12448453 111.09695657 83.49387149 111.10042483 84.86325073 111.10557556 C104.95419688 111.17721671 124.17909798 110.56831679 141.25 98.75 C150.33103091 89.66896909 153.2615824 80.14427315 153.4375 67.5625 C153.36823315 56.40728963 150.81241917 47.26768835 143 39 C129.07025735 25.54839497 108.76898323 25.68715506 90.66796875 25.8046875 C89.13236639 25.80763677 87.59676201 25.80967175 86.06115723 25.81079102 C80.43657368 25.82117598 74.81203349 25.84909792 69.1875 25.875 C56.585625 25.91625 43.98375 25.9575 31 26 Z M31 136 C31 165.04 31 194.08 31 224 C43.705 224.04125 56.41 224.0825 69.5 224.125 C73.47869141 224.14320801 77.45738281 224.16141602 81.55664062 224.18017578 C85.19280835 224.18687374 85.19280835 224.18687374 88.82897949 224.19088745 C90.42078782 224.1939141 92.01259222 224.20085278 93.60437012 224.21115112 C112.64720067 224.32795379 132.89085209 224.19759193 148 211 C156.6889784 202.3276991 159.35239936 192.36486375 159.4375 180.375 C159.27166792 168.4756786 156.52830903 158.31234615 148.40625 149.21484375 C132.24180161 134.30847743 107.96102232 135.83173503 87.4453125 135.90234375 C85.99015339 135.90381916 84.53499374 135.90483617 83.07983398 135.90539551 C77.76154775 135.91057902 72.44327297 135.92453979 67.125 135.9375 C49.243125 135.9684375 49.243125 135.9684375 31 136 Z " fill="#4CB3E3" transform="translate(841,1570)"/>
<path d="M0 0 C9.9 0 19.8 0 30 0 C35.86239129 11.4942391 41.23839233 23.10431138 46.375 34.9375 C47.15840467 36.73326908 47.94226945 38.52883749 48.7265625 40.32421875 C50.34909654 44.03943475 51.96968571 47.75548969 53.58886719 51.47216797 C57.00496386 59.30934806 60.44531837 67.13585863 63.8850708 74.962677 C65.75782293 79.22463108 67.62881805 83.48735637 69.5 87.75 C70.24999168 89.45833699 70.99999168 91.16667032 71.75 92.875 C73.25 96.29166667 74.75 99.70833333 76.25 103.125 C76.62125504 103.97063507 76.99251007 104.81627014 77.37501526 105.68753052 C78.12496856 107.3957603 78.87491769 109.10399191 79.62486267 110.81222534 C81.5005431 115.08465801 83.37629593 119.35705885 85.25219727 123.62939453 C88.6191536 131.29777435 91.98561763 138.96636807 95.34933472 146.63616943 C103.76604897 165.82746607 112.20568052 185.00833138 120.68237305 204.17321777 C127.55378566 219.70966809 134.39281912 235.26016345 141.21484375 250.81835938 C141.57417496 251.63770966 141.93350616 252.45705994 142.3037262 253.30123901 C142.96520037 254.80970368 143.62646635 256.31825967 144.28746033 257.82693481 C144.58697098 258.5100473 144.88648163 259.19315979 145.19506836 259.89697266 C145.48517792 260.56158508 145.77528748 261.22619751 146.07418823 261.91094971 C146.74182752 263.41744606 147.42447926 264.91732073 148.1164856 266.41278076 C148.66706131 267.61103485 148.66706131 267.61103485 149.22875977 268.83349609 C149.73609398 269.9214296 149.73609398 269.9214296 150.25367737 271.03134155 C151 273 151 273 151 276 C139.45 276 127.9 276 116 276 C109.25028345 262.50056689 109.25028345 262.50056689 107.22338867 257.71240234 C106.76659225 256.63864349 106.30979584 255.56488464 105.8391571 254.45858765 C105.37016495 253.3456131 104.90117279 252.23263855 104.41796875 251.0859375 C103.91832108 249.90907379 103.4186734 248.73221008 102.90388489 247.51968384 C101.59465746 244.43434466 100.28864693 241.34768812 98.984375 238.26025391 C97.13270952 233.87956737 95.27457627 229.50161823 93.41755676 225.12319946 C92.43262547 222.79992136 91.44877569 220.4761844 90.46611023 218.15194702 C90.02507462 217.10970978 89.584039 216.06747253 89.12963867 214.99365234 C88.74136398 214.07498383 88.35308929 213.15631531 87.95304871 212.20980835 C87.34043359 210.78935419 86.69180738 209.38361477 86 208 C39.14 207.67 -7.72 207.34 -56 207 C-56.99 209.97 -57.98 212.94 -59 216 C-59.80873659 218.04449841 -60.64402922 220.0787978 -61.51196289 222.09887695 C-61.98577896 223.20644852 -62.45959503 224.31402008 -62.94776917 225.45515442 C-63.4509819 226.62108627 -63.95419464 227.78701813 -64.47265625 228.98828125 C-65.00194635 230.22124792 -65.53094805 231.45433842 -66.05967712 232.68754578 C-67.16103049 235.25432291 -68.26472618 237.82007416 -69.37036133 240.38500977 C-70.78476645 243.66634379 -72.19491601 246.94948447 -73.60353947 250.23330402 C-74.95421989 253.38145226 -76.30715958 256.52862798 -77.66015625 259.67578125 C-78.16539322 260.85183426 -78.67063019 262.02788727 -79.19117737 263.23957825 C-79.66184128 264.33138901 -80.13250519 265.42319977 -80.61743164 266.5480957 C-81.23673302 267.98630424 -81.23673302 267.98630424 -81.86854553 269.4535675 C-82.85076074 271.66412462 -83.91821356 273.83642712 -85 276 C-96.55 276 -108.1 276 -120 276 C-119.05467919 271.27339593 -117.54549736 267.33854341 -115.59765625 262.984375 C-115.24880371 262.19360565 -114.89995117 261.4028363 -114.54052734 260.58810425 C-113.38579855 257.9733353 -112.22410759 255.36171941 -111.0625 252.75 C-110.2454861 250.90306474 -109.42900726 249.05589271 -108.61303711 247.20849609 C-106.9172432 243.37018654 -105.21914551 239.53290838 -103.51953125 235.69628906 C-101.15818725 230.36226228 -98.81030686 225.02242613 -96.46875 219.6796875 C-96.1042424 218.84799545 -95.7397348 218.01630341 -95.36418152 217.15940857 C-94.63071289 215.48563566 -93.8972889 213.81184319 -93.16390991 212.13803101 C-86.55481886 197.05840393 -79.90963958 181.99485999 -73.25 166.9375 C-67.79025844 154.59299775 -62.34156963 142.24398555 -56.9375 129.875 C-56.66203339 129.24452759 -56.38656677 128.61405518 -56.10275269 127.96447754 C-55.54238631 126.68187795 -54.98202768 125.39927498 -54.42167664 124.1166687 C-54.14072647 123.47359772 -53.85977631 122.83052673 -53.5703125 122.16796875 C-53.28722733 121.51998322 -53.00414215 120.87199768 -52.71247864 120.20437622 C-48.92122551 111.52825322 -45.11770692 102.85751039 -41.3125 94.1875 C-40.93734253 93.33261993 -40.56218506 92.47773987 -40.17565918 91.59695435 C-33.80600053 77.08505184 -27.39932999 62.58967923 -20.98583984 48.09710693 C-13.90827268 32.09955253 -6.93030607 16.06200348 0 0 Z M15 40 C3.86256948 65.50481438 -7.02761212 91.11513309 -17.91015625 116.72949219 C-20.00198383 121.6528386 -22.09580717 126.57532859 -24.19140625 131.49707031 C-26.78384777 137.58582322 -29.37234893 143.67624081 -31.95828247 149.76776123 C-32.94167275 152.08276878 -33.92626503 154.39726612 -34.91207886 156.71124268 C-36.27679626 159.91544769 -37.63702028 163.12152286 -38.99609375 166.328125 C-39.6083783 167.76159775 -39.6083783 167.76159775 -40.23303223 169.22402954 C-40.60013306 170.09272675 -40.96723389 170.96142395 -41.34545898 171.85644531 C-41.66691391 172.61290344 -41.98836884 173.36936157 -42.31956482 174.14874268 C-43.11499596 175.98414484 -43.11499596 175.98414484 -43 178 C-4.39 178 34.22 178 74 178 C71.06730987 170.37500566 68.14474669 162.80322991 64.953125 155.29296875 C64.58486603 154.42168335 64.21660706 153.55039795 63.83718872 152.65270996 C62.64352558 149.83009358 61.44682885 147.00877535 60.25 144.1875 C59.40300596 142.18666898 58.55616612 140.18577269 57.70947266 138.18481445 C55.14295187 132.12180684 52.57207154 126.06065459 50 120 C49.61767212 119.09894531 49.23534424 118.19789062 48.84143066 117.26953125 C44.63713095 107.36166703 40.42699607 97.45629161 36.21302795 87.55253601 C32.33700793 78.44283398 28.465203 69.33134129 24.59332275 60.21987915 C22.76937914 55.92777969 20.94523209 51.6357667 19.12109375 47.34375 C18.5109853 45.90820356 17.90087777 44.47265673 17.29077148 43.03710938 C16.86481689 42.03486328 16.4388623 41.03261719 16 40 C15.67 40 15.34 40 15 40 Z " fill="#4CB6E3" transform="translate(960,1168)"/>
<path d="M0 0 C0.68918518 -0.00067474 1.37837036 -0.00134949 2.08843994 -0.00204468 C34.01879182 0.04743178 63.12890016 7.16593145 88.5 27.25 C89.0779834 27.64509766 89.6559668 28.04019531 90.25146484 28.44726562 C91.94921875 29.671875 91.94921875 29.671875 94.5 32.25 C94.20592267 36.4491338 92.97691366 39.8566415 91.21484375 43.6484375 C90.76689453 44.62167969 90.31894531 45.59492187 89.85742188 46.59765625 C89.15456055 48.09619141 89.15456055 48.09619141 88.4375 49.625 C87.96505859 50.64722656 87.49261719 51.66945313 87.00585938 52.72265625 C85.84367781 55.23484671 84.67490756 57.74374253 83.5 60.25 C79.34245339 60.25 77.51615505 57.94686222 74.5 55.375 C50.16680292 35.56373011 19.11771363 29.02533552 -11.68115234 32.14672852 C-28.32308621 34.13795348 -43.18182468 39.47929914 -55.5 51.25 C-55.995 52.24 -55.995 52.24 -56.5 53.25 C-57.16 53.25 -57.82 53.25 -58.5 53.25 C-58.7475 53.889375 -58.995 54.52875 -59.25 55.1875 C-60.60092417 58.49726421 -62.08642106 61.7295742 -63.59765625 64.96875 C-67.08870682 73.79460946 -66.91530384 86.26568584 -63.9375 95.25 C-59.34535993 105.7372403 -52.73767469 111.36670076 -42.5 116.25 C-32.45313167 120.15503464 -22.21583635 122.59399944 -11.67086792 124.70266724 C-9.18227262 125.20106392 -6.69653288 125.71200156 -4.21118164 126.22631836 C-0.86621594 126.91812014 2.47932529 127.60695753 5.82568359 128.29199219 C63.35061582 140.07581454 63.35061582 140.07581454 82.5 157.25 C83.19609375 157.81847656 83.8921875 158.38695312 84.609375 158.97265625 C95.64734575 168.70575061 100.70920217 184.28254157 101.73828125 198.5546875 C102.22941784 220.11299881 95.30623918 239.50961324 80.5 255.25 C58.37060217 276.05030487 29.64810998 282.47178792 0.125 282.5 C-0.60420654 282.50100708 -1.33341309 282.50201416 -2.0847168 282.50305176 C-37.60618836 282.47005006 -75.94457962 275.86079755 -104.5 253.25 C-105.49 252.59 -106.48 251.93 -107.5 251.25 C-105.44611301 244.78069548 -103.06765738 238.50577322 -100.4375 232.25 C-100.08623047 231.39277344 -99.73496094 230.53554687 -99.37304688 229.65234375 C-99.03208984 228.83894531 -98.69113281 228.02554687 -98.33984375 227.1875 C-98.03425537 226.45402344 -97.72866699 225.72054688 -97.41381836 224.96484375 C-96.5 223.25 -96.5 223.25 -94.5 222.25 C-92.87451172 223.01928711 -92.87451172 223.01928711 -90.9296875 224.27734375 C-89.84457886 224.96546143 -89.84457886 224.96546143 -88.73754883 225.66748047 C-87.95790771 226.16908691 -87.1782666 226.67069336 -86.375 227.1875 C-53.3321893 247.85535701 -12.08942736 257.41095984 26.61914062 248.77734375 C40.78271731 245.24625815 52.90514633 238.86082426 60.80859375 226.14453125 C66.22962829 215.87832297 67.28966339 204.0167916 64.6953125 192.7578125 C61.21606319 183.32784714 54.96479646 177.97629698 46.375 173.125 C40.75342109 170.55001113 35.05995196 168.9169963 29.078125 167.3828125 C27.57150803 166.99343506 27.57150803 166.99343506 26.03445435 166.59619141 C13.88995078 163.51274062 1.61549296 161.08358395 -10.67138672 158.64550781 C-21.51819382 156.48415142 -32.27543999 154.19320887 -42.921875 151.1796875 C-43.75494171 150.94540039 -44.58800842 150.71111328 -45.44631958 150.46972656 C-64.24281079 144.97019685 -82.12287176 134.95946222 -92.57421875 117.85546875 C-97.95035779 107.9708847 -100.8758515 97.46575937 -101.5 86.25 C-101.55285156 85.37214844 -101.60570312 84.49429687 -101.66015625 83.58984375 C-102.27071609 63.86610635 -95.59920039 44.69030253 -82.265625 29.98828125 C-64.98499988 12.97527643 -43.96752185 5.21949298 -20.5 1.25 C-19.55455322 1.073479 -18.60910645 0.89695801 -17.63500977 0.71508789 C-11.79461555 -0.15135172 -5.89398727 0.00516234 0 0 Z " fill="#4CA4E3" transform="translate(1246.5,1164.75)"/>
<path d="M0 0 C0.93070313 0.40089844 1.86140625 0.80179688 2.8203125 1.21484375 C26.26758476 12.12995325 44.19528622 33.69032551 53.6953125 57.38671875 C68.53030738 98.47165966 68.1803323 145.71806085 50.078125 185.7265625 C38.91204472 209.27242744 20.82888422 226.63151729 -3 237 C-4.10085938 237.49242187 -5.20171875 237.98484375 -6.3359375 238.4921875 C-36.06774498 250.89879358 -72.71011482 248.61750228 -102.08862305 236.57763672 C-113.76964152 231.62370007 -122.79595066 224.70530775 -132 216 C-132.71285156 215.34 -133.42570312 214.68 -134.16015625 214 C-153.24531969 195.76061452 -162.62805987 168.62674497 -166 143 C-166.0920874 142.3598999 -166.1841748 141.7197998 -166.27905273 141.06030273 C-171.30962078 102.55589199 -165.02469362 60.36557222 -141 29 C-126.20840144 10.85853941 -106.7553549 -1.50903393 -84 -7 C-83.34580078 -7.16226074 -82.69160156 -7.32452148 -82.01757812 -7.49169922 C-54.85397909 -13.91158397 -25.48814467 -11.06798119 0 0 Z M-77 21 C-77.92296875 21.20496094 -78.8459375 21.40992188 -79.796875 21.62109375 C-96.52231495 25.9089852 -110.99956655 39.32218332 -120.125 53.625 C-129.42576919 70.05298905 -134.02732616 89.05496544 -134.23828125 107.8828125 C-134.2480751 108.61130402 -134.25786896 109.33979553 -134.26795959 110.09036255 C-134.61152753 142.27885128 -131.06549325 172.98032064 -107.7578125 197.34375 C-97.41510224 207.24562343 -85.90061365 212.90757273 -72 216 C-71.24267578 216.17515137 -70.48535156 216.35030273 -69.70507812 216.53076172 C-63.76186827 217.83098386 -58.07944685 218.38656228 -52 218.375 C-51.09862305 218.37338867 -50.19724609 218.37177734 -49.26855469 218.37011719 C-37.14715126 218.15328394 -24.72821333 215.85175273 -14 210 C-13.26910156 209.63132812 -12.53820313 209.26265625 -11.78515625 208.8828125 C7.95182423 198.55885348 19.61732922 180.04512414 26.1953125 159.21484375 C35.4798507 126.17256539 33.66580833 85.92865455 17.6875 55.3125 C7.01425178 37.0776402 -8.89554518 25.57544227 -29.25 20.25 C-45.14402637 16.38873936 -61.2087662 17.26088627 -77 21 Z " fill="#4C97E3" transform="translate(1246,1577)"/>
<path d="M0 0 C0.65887207 0.15033691 1.31774414 0.30067383 1.99658203 0.45556641 C30.65268121 7.38396799 57.05282167 27.21728206 72.79248047 52.01757812 C91.48870582 82.71174509 98.63565404 118.73480343 90.3203125 154.14453125 C84.2345133 177.42668624 72.53137987 199.24696892 55 216 C54.34 216 53.68 216 53 216 C53 216.66 53 217.32 53 218 C51.66162109 219.29345703 51.66162109 219.29345703 49.7734375 220.7578125 C48.73110962 221.56690063 48.73110962 221.56690063 47.66772461 222.39233398 C46.53282593 223.25000366 46.53282593 223.25000366 45.375 224.125 C44.60099854 224.71031494 43.82699707 225.29562988 43.02954102 225.89868164 C15.69373367 246.24402372 -15.98407804 252.82740113 -49.734375 248.33984375 C-80.1316655 243.34868371 -108.45423254 225.5635353 -126.484375 200.609375 C-147.25456821 170.98101553 -156.09105384 135.52564655 -149.81811523 99.53613281 C-149.02324515 95.64737199 -148.06264629 91.82339957 -147 88 C-146.82871582 87.34612305 -146.65743164 86.69224609 -146.48095703 86.01855469 C-141.05766494 65.73200388 -129.2575451 48.11856914 -115 33 C-114.38769531 32.32324219 -113.77539062 31.64648438 -113.14453125 30.94921875 C-84.82215058 0.81517193 -39.34006195 -9.00424005 0 0 Z M-103.55078125 58.9296875 C-121.82140811 81.83353553 -127.20305994 109.68035156 -124.79785156 138.41503906 C-122.45957113 157.04186922 -113.58159195 174.55245478 -102 189 C-101.38382813 189.78375 -100.76765625 190.5675 -100.1328125 191.375 C-85.02320888 209.53246358 -62.00086235 220.97267903 -38.6875 223.4375 C-15.41559991 225.43385369 8.92845241 219.59028067 27.5 204.9375 C29.00851999 203.63480138 30.50925494 202.32300242 32 201 C32.65871094 200.48308594 33.31742188 199.96617187 33.99609375 199.43359375 C51.85293836 185.09781709 62.42120287 161.90640853 66.59375 139.86328125 C69.67030742 110.60640347 64.14809987 82.54271641 45.625 59.25 C30.99586458 42.18685749 13.94516511 30.45756724 -8 25 C-8.84046875 24.77570313 -9.6809375 24.55140625 -10.546875 24.3203125 C-46.29628437 16.21563274 -80.15344481 32.55717955 -103.55078125 58.9296875 Z " fill="#4C89E3" transform="translate(1496,1580)"/>
<path d="M0 0 C8.91 0 17.82 0 27 0 C33.74658754 13.49317507 33.74658754 13.49317507 36.015625 18.73046875 C36.53479492 19.92341553 37.05396484 21.1163623 37.58886719 22.34545898 C37.85807983 22.96814667 38.12729248 23.59083435 38.40466309 24.23239136 C39.59948791 26.99580119 40.80188119 29.75590274 42.003479 32.51637268 C42.6527466 34.00826153 43.30162501 35.50031981 43.95013428 36.99253845 C47.48474231 45.12419908 51.05029009 53.24221404 54.61727905 61.35971069 C56.53325561 65.71999369 58.4481896 70.08073454 60.36328125 74.44140625 C60.93934868 75.7529644 60.93934868 75.7529644 61.52705383 77.09101868 C64.18001962 83.13149291 66.83074949 89.1729448 69.48046875 95.21484375 C70.96598927 98.6016312 72.45167739 101.98834507 73.9375 105.375 C74.30511444 106.21293091 74.67272888 107.05086182 75.05148315 107.91418457 C81.35174889 122.27197637 87.68990766 136.61283437 94.03540039 150.95068359 C99.38627821 163.04429228 104.68897003 175.15614639 109.91235352 187.30541992 C113.28011611 195.11039029 116.72672721 202.87734744 120.20703125 210.6328125 C121.13030854 212.69416475 122.05356692 214.75552546 122.97680664 216.81689453 C124.79764826 220.88132098 126.62774473 224.94141696 128.46264648 228.99951172 C129.30355031 230.87452757 130.14414085 232.74968396 130.984375 234.625 C131.37538895 235.4830423 131.76640289 236.34108459 132.16926575 237.22512817 C132.52816391 238.0299765 132.88706207 238.83482483 133.25683594 239.6640625 C133.57070251 240.35967285 133.88456909 241.0552832 134.20794678 241.77197266 C135 244 135 244 136 250 C125.44 250 114.88 250 104 250 C101.0527774 243.25247292 98.1063522 236.50468284 95.16701508 229.75373077 C93.79767837 226.60927149 92.42701127 223.46540849 91.05297852 220.32299805 C89.47241949 216.7080884 87.89818509 213.09044154 86.32421875 209.47265625 C85.83660568 208.35979752 85.34899261 207.24693878 84.84660339 206.10035706 C84.38635269 205.03993698 83.92610199 203.97951691 83.4519043 202.88696289 C83.0499736 201.96540909 82.64804291 201.04385529 82.2339325 200.09437561 C80.65181258 196.12683824 79.35072041 192.05216122 78 188 C35.1 188 -7.8 188 -52 188 C-52.33 189.65 -52.66 191.3 -53 193 C-53.68639912 194.84293082 -54.42193889 196.66795576 -55.19311523 198.47705078 C-55.64706161 199.54811066 -56.101008 200.61917053 -56.56871033 201.72268677 C-57.06037186 202.86865326 -57.55203339 204.01461975 -58.05859375 205.1953125 C-58.56294449 206.37970917 -59.06729523 207.56410583 -59.58692932 208.78439331 C-60.6523676 211.28545175 -61.72105997 213.78508531 -62.79223633 216.28369141 C-64.16391805 219.48367083 -65.52862499 222.68656684 -66.89106655 225.89048958 C-68.19368767 228.95180892 -69.50126578 232.01100012 -70.80859375 235.0703125 C-71.29823105 236.22032745 -71.78786835 237.37034241 -72.29234314 238.5552063 C-72.74944168 239.61996185 -73.20654022 240.68471741 -73.67749023 241.78173828 C-74.27919289 243.18808029 -74.27919289 243.18808029 -74.89305115 244.62283325 C-76 247 -76 247 -78 250 C-80.48340903 250.26727014 -82.71472068 250.34866334 -85.1953125 250.29296875 C-85.90275604 250.28872391 -86.61019958 250.28447906 -87.33908081 250.28010559 C-89.60143905 250.26329547 -91.86291048 250.22564128 -94.125 250.1875 C-95.65753923 250.17245607 -97.1900924 250.15876716 -98.72265625 250.14648438 C-102.48211318 250.11338462 -106.24090618 250.06158825 -110 250 C-107.76945163 242.69357479 -104.78102538 235.83652068 -101.59313965 228.9072876 C-100.0082336 225.46007956 -98.44020522 222.00520042 -96.87109375 218.55078125 C-96.54694489 217.83782898 -96.22279602 217.12487671 -95.88882446 216.39031982 C-92.60919512 209.16419806 -89.41993952 201.89977094 -86.25 194.625 C-85.67505775 193.30647397 -85.10010646 191.98795189 -84.52514648 190.66943359 C-83.63160988 188.62001698 -82.73818907 186.57055025 -81.84510803 184.52093506 C-77.99755646 175.69379137 -74.12274454 166.87861164 -70.25 158.0625 C-69.09866731 155.44114548 -67.94737793 152.81977194 -66.7960968 150.19839478 C-66.02177929 148.43534246 -65.24743635 146.67230133 -64.47306824 144.90927124 C-61.82007036 138.8686966 -59.16928726 132.82715357 -56.51953125 126.78515625 C-48.08783274 107.56159986 -39.6297497 88.35000703 -31.13427734 69.15454102 C-27.074049 59.97731184 -23.0295173 50.79354848 -19.01171875 41.59765625 C-18.19401609 39.7278621 -17.37630783 37.8580704 -16.55859375 35.98828125 C-15.0225571 32.47546483 -13.49058541 28.96091469 -11.9609375 25.4453125 C-11.25926121 23.83977966 -10.55744555 22.23430772 -9.85546875 20.62890625 C-9.55307785 19.93064224 -9.25068695 19.23237823 -8.93913269 18.51295471 C-6.17464774 12.20673353 -3.09397204 6.18794408 0 0 Z M13 36 C0.74910383 64.18708737 -11.3151182 92.45254502 -23.33740234 120.73779297 C-25.39301667 125.57363605 -27.45139571 130.4082924 -29.51165771 135.24215698 C-30.85193116 138.38725609 -32.19079807 141.53295233 -33.52923584 144.67883301 C-34.1299316 146.08996953 -34.73119998 147.50086245 -35.33306885 148.91149902 C-36.13906958 150.80096957 -36.94266624 152.69146511 -37.74609375 154.58203125 C-38.18622803 155.61561768 -38.6263623 156.6492041 -39.07983398 157.71411133 C-40.0622371 159.74392 -40.0622371 159.74392 -40 161 C-5.02 161 29.96 161 66 161 C63.7790272 154.18482179 63.7790272 154.18482179 61.21679688 147.56152344 C60.89723022 146.80479843 60.57766357 146.04807343 60.24841309 145.26841736 C59.90862427 144.47343338 59.56883545 143.6784494 59.21875 142.859375 C58.85285767 141.99546646 58.48696533 141.13155792 58.10998535 140.24147034 C56.90980688 137.4096322 55.70489015 134.57983621 54.5 131.75 C53.65328489 129.75430349 52.80693705 127.75845112 51.9609375 125.76245117 C50.19802141 121.60389351 48.43351749 117.44601481 46.66796875 113.28857422 C42.83448616 104.25772019 39.02236369 95.21785667 35.20913696 86.17843628 C33.2380744 81.50655883 31.26558942 76.83528223 29.29296875 72.1640625 C28.92290207 71.28771652 28.55283539 70.41137054 28.17155457 69.50846863 C23.45340682 58.33656619 18.72875198 47.16741807 14 36 C13.67 36 13.34 36 13 36 Z " fill="#4CCDE3" transform="translate(663,1570)"/>
<path d="M0 0 C1.15442345 -0.00855011 1.15442345 -0.00855011 2.33216858 -0.01727295 C3.95491185 -0.02666132 5.57767366 -0.03323218 7.20043945 -0.03710938 C9.62291995 -0.04672716 12.04451784 -0.07777254 14.46679688 -0.109375 C28.62109578 -0.20635871 42.1045893 1.67945843 55.66015625 5.890625 C56.48733154 6.14481201 57.31450684 6.39899902 58.16674805 6.66088867 C87.78043248 16.0827837 114.9336176 34.30598898 133.72265625 59.203125 C134.12194336 59.72745117 134.52123047 60.25177734 134.93261719 60.79199219 C149.65855239 80.25413762 160.16422515 102.10235498 164.72265625 126.203125 C164.89853271 127.11231689 165.07440918 128.02150879 165.25561523 128.95825195 C166.86006844 138.13195752 167.08167111 147.10941698 167.03515625 156.390625 C167.0330011 157.1644754 167.03084595 157.93832581 167.02862549 158.73562622 C166.97771834 170.12455688 166.62605331 181.13995615 163.72265625 192.203125 C163.42464111 193.37705811 163.42464111 193.37705811 163.12060547 194.57470703 C152.42156496 235.72794524 126.49440152 271.56033589 89.73388672 293.38378906 C52.61356171 314.19381117 8.69929331 320.07126555 -32.46484375 309.015625 C-54.37582869 302.68367425 -75.02734009 292.14170089 -92.27734375 277.203125 C-92.82148926 276.73197266 -93.36563477 276.26082031 -93.92626953 275.77539062 C-109.63230833 262.03319254 -121.82199922 245.78235365 -131.27734375 227.203125 C-131.62925781 226.51412109 -131.98117187 225.82511719 -132.34375 225.11523438 C-146.98914002 195.85147536 -151.69688056 160.33770292 -145.27734375 128.203125 C-145.09993652 127.25397217 -145.09993652 127.25397217 -144.91894531 126.28564453 C-137.45704578 87.08693818 -114.07175097 50.99579918 -81.52685547 27.91992188 C-57.6330375 11.67272815 -29.20129811 0.17363968 0 0 Z M-94.27734375 59.203125 C-97.48136473 62.72959538 -100.41924917 66.39233223 -103.27734375 70.203125 C-104.01597656 71.18796875 -104.75460937 72.1728125 -105.515625 73.1875 C-119.1465567 92.11542588 -127.64902483 113.14934479 -131.27734375 136.203125 C-131.46039062 137.21890625 -131.6434375 138.2346875 -131.83203125 139.28125 C-133.66804181 155.45102723 -133.20581537 172.38850848 -129.27734375 188.203125 C-128.82488281 190.02457031 -128.82488281 190.02457031 -128.36328125 191.8828125 C-121.51164938 217.33968865 -109.24846697 238.10880658 -91.27734375 257.203125 C-90.67921875 257.86570312 -90.08109375 258.52828125 -89.46484375 259.2109375 C-67.65349255 282.43250538 -32.0549317 298.01749433 -0.44482422 299.31982422 C18.81626341 299.91589483 36.37564278 298.24581679 54.72265625 292.203125 C55.74101563 291.86796875 56.759375 291.5328125 57.80859375 291.1875 C93.47736826 278.42939929 122.20765021 252.19260907 138.72265625 218.203125 C152.63278012 188.26235615 157.00411356 152.22203365 147.72265625 120.203125 C147.40119629 119.0591626 147.40119629 119.0591626 147.07324219 117.89208984 C141.44299009 98.30913879 131.9007802 80.75034989 118.72265625 65.203125 C118.03429688 64.39101562 117.3459375 63.57890625 116.63671875 62.7421875 C93.56133124 36.33461407 60.9089695 18.40925966 25.72265625 15.203125 C24.53285156 15.07035156 23.34304688 14.93757813 22.1171875 14.80078125 C-21.84433073 10.8124274 -63.54998846 28.22986534 -94.27734375 59.203125 Z " fill="#4C89E3" transform="translate(1808.27734375,1271.796875)"/>
<path d="M0 0 C18.75428165 16.11824792 30.0409057 37.22481702 32.875 61.8125 C32.99497438 63.41556193 33.09980134 65.01984881 33.1875 66.625 C33.26677734 67.70007812 33.26677734 67.70007812 33.34765625 68.796875 C34.34885652 94.04453386 23.97518333 117.21889622 7.1875 135.625 C-8.20777023 151.87828688 -30.54131709 162.01888569 -52.8828125 162.83984375 C-79.79560959 163.48146401 -102.56835115 156.59175778 -122.5078125 137.89453125 C-139.92539662 120.74263909 -150.57795202 98.34784015 -151.05395508 73.74121094 C-151.15619522 49.16852225 -143.24204412 27.10036858 -126.8125 8.625 C-126.16023438 7.87863281 -125.50796875 7.13226562 -124.8359375 6.36328125 C-92.3138712 -28.53399214 -36.37024734 -28.71068339 0 0 Z M-116.3046875 19.28515625 C-131.33580454 36.87206929 -137.22512765 56.67359806 -135.8125 79.625 C-133.62618736 100.19199023 -123.42784108 117.53342203 -108.03125 131.0703125 C-96.9831852 139.83154668 -84.74829534 145.39316392 -70.8125 147.625 C-69.86246094 147.77839844 -68.91242188 147.93179687 -67.93359375 148.08984375 C-49.06518068 150.37459037 -30.45237615 145.11335297 -14.8125 134.625 C-11.27364669 131.81132155 -8.02755013 128.79957288 -4.8125 125.625 C-3.86117188 124.76455078 -3.86117188 124.76455078 -2.890625 123.88671875 C10.24267604 111.71226491 17.15145078 93.23783666 18.1875 75.625 C18.22875 74.944375 18.27 74.26375 18.3125 73.5625 C18.91567216 53.05464662 11.59637083 34.86798625 -1.8125 19.625 C-2.47894531 18.86316406 -3.14539062 18.10132813 -3.83203125 17.31640625 C-16.54978444 3.70203967 -34.36698425 -4.89525152 -53.0390625 -5.7109375 C-77.90474955 -6.13061154 -98.98917506 0.80261084 -116.3046875 19.28515625 Z " fill="#4C89E3" transform="translate(1785.8125,1739.375)"/>
<path d="M0 0 C11.10956223 9.66911794 18.91732801 21.38370552 25.75 34.3125 C26.20890625 35.13878906 26.6678125 35.96507812 27.140625 36.81640625 C29.92740465 42.0283897 32.06885203 47.46809584 34.125 53 C34.40037598 53.71325439 34.67575195 54.42650879 34.95947266 55.16137695 C36.65811221 59.909069 36.94210305 63.2777669 35.75 68.3125 C34.625 70.25 34.625 70.25 32.75 71.3125 C29.3125 71.8125 29.3125 71.8125 25.75 71.3125 C21.5920825 67.24443926 19.98149591 62.26846385 18 56.9375 C8.32428529 31.96440094 -5.81578823 11.05670941 -30.7265625 -0.6328125 C-43.96951835 -6.16779405 -56.32610228 -8.01709156 -70.625 -7.875 C-72.46191406 -7.8740332 -72.46191406 -7.8740332 -74.3359375 -7.87304688 C-81.45640473 -7.83910397 -88.3718335 -7.46417065 -95.43212891 -6.5090332 C-99.19164487 -6.74713805 -100.66582922 -8.01376719 -103.25 -10.6875 C-103.73281686 -14.12757014 -103.97722355 -16.44694218 -102.1875 -19.5 C-73.4974556 -37.08422076 -23.44221563 -19.56033114 0 0 Z " fill="#4C89E3" transform="translate(1895.25,1330.6875)"/>
<path d="M0 0 C14.97553025 3.64104957 26.91323502 11.64186669 35.4453125 24.58984375 C42.56004376 36.81664117 42.56004376 36.81664117 41.3359375 42.54296875 C40.02734375 45.30859375 40.02734375 45.30859375 37.02734375 47.30859375 C33.83561309 47.64813956 31.81392669 47.76414372 29.00390625 46.13671875 C26.5708186 43.88635309 25.65726629 41.78051743 24.33984375 38.74609375 C19.41261275 28.60972549 13.26471956 21.89388167 2.7890625 17.48046875 C-2.38648109 15.86814987 -7.59232986 14.98720446 -12.96850586 14.33227539 C-18.4978099 13.62484884 -18.4978099 13.62484884 -20.97265625 11.9765625 C-22.18998934 9.94608894 -22.37448198 8.66925824 -22.34765625 6.30859375 C-22.35539062 5.62796875 -22.363125 4.94734375 -22.37109375 4.24609375 C-20.60281121 -4.35261349 -6.49786448 -1.26468503 0 0 Z " fill="#4C89E3" transform="translate(1488.97265625,1617.69140625)"/>
<path d="M0 0 C17.09053712 0.50701223 31.23040876 4.8720831 43.74609375 16.8828125 C47.59524899 21.09624111 50.51621157 25.58426026 53.22265625 30.59375 C53.66738281 31.40199219 54.11210938 32.21023438 54.5703125 33.04296875 C56.98523535 37.86462826 57.86646905 41.22396152 56.22265625 46.59375 C52.50207265 49.07413907 50.62469054 49.05712203 46.22265625 48.59375 C42.65678418 45.71070449 40.96336124 42.42179614 38.97265625 38.34375 C33.15271205 27.28709695 26.02676458 21.73845742 14.34765625 17.90625 C10.84515555 16.89705488 7.54193353 16.36896641 3.91015625 16.09375 C-0.02587282 15.75955885 -2.82647733 15.44942718 -5.77734375 12.59375 C-6.83984375 9.21875 -6.83984375 9.21875 -6.77734375 5.59375 C-4.80851212 2.34376477 -3.7811806 0.80835366 0 0 Z " fill="#4C88E3" transform="translate(1728.77734375,1745.40625)"/>
<path d="M0 0 C5.21852958 6.60756518 4.56231499 13.49189433 4.4375 21.625 C4.44458984 22.9346875 4.45167969 24.244375 4.45898438 25.59375 C4.38078897 37.35915034 4.38078897 37.35915034 -0.625 42.75 C-4.83036469 44.96334984 -9.42454345 45.79092715 -14.03515625 44.375 C-18.55033776 42.07427057 -20.31614897 39.65651473 -22 35 C-22.46334347 30.53673458 -22.46396078 26.10889961 -22.4375 21.625 C-22.45748047 20.43132812 -22.47746094 19.23765625 -22.49804688 18.0078125 C-22.49410331 10.87785116 -21.92367781 6.01969054 -18 0 C-13.08439028 -3.27707315 -4.95719808 -3.16709877 0 0 Z " fill="#4CDBE3" transform="translate(1855,1623)"/>
<path d="M0 0 C1.77697266 -0.01836914 1.77697266 -0.01836914 3.58984375 -0.03710938 C4.73324219 -0.03904297 5.87664062 -0.04097656 7.0546875 -0.04296875 C8.09866699 -0.04707764 9.14264648 -0.05118652 10.21826172 -0.05541992 C13.28751139 0.20108129 15.39861239 0.76612288 18.125 2.1875 C21.95513632 7.36335989 22.83449008 10.80208924 22.125 17.1875 C20.80347899 21.07864521 19.93535522 22.69947156 16.40039062 24.82836914 C10.92081255 27.10213264 5.48335223 26.6593141 -0.375 26.625 C-1.58542969 26.64498047 -2.79585937 26.66496094 -4.04296875 26.68554688 C-15.04257494 26.67949649 -15.04257494 26.67949649 -19.875 22.1875 C-22.84216779 18.62689865 -23.35050585 15.6133457 -23.1640625 11.11328125 C-22.58312605 7.24298845 -20.75159513 4.95452074 -17.875 2.4375 C-12.46952904 -0.94091935 -6.14754423 0.003323 0 0 Z " fill="#4CDBE3" transform="translate(1878.875,1659.8125)"/>
<path d="M0 0 C1.60101562 -0.01160156 1.60101562 -0.01160156 3.234375 -0.0234375 C13.42940693 0.00192328 13.42940693 0.00192328 18 2.25 C21.88169079 7.35748788 22.71688213 10.90047256 22 17.25 C20.50805036 20.896988 18.40254852 23.25429761 15.08251953 25.40332031 C10.3431701 27.33017422 5.03240159 26.81694991 0 26.75 C-1.74410156 26.77320313 -1.74410156 26.77320313 -3.5234375 26.796875 C-9.94123059 26.76750295 -14.17634578 26.66486996 -19 22.25 C-21.86696332 18.80964401 -22.54335126 15.80497686 -22.34765625 11.3125 C-21.70814884 7.51856843 -20.34429083 5.33459319 -18 2.25 C-12.32767878 -0.53996907 -6.17239668 -0.04472751 0 0 Z " fill="#4CDBE3" transform="translate(1814,1659.75)"/>
<path d="M0 0 C3.37093571 1.29099666 4.5764001 2.3836673 6.60546875 5.3359375 C8.65232256 10.71394556 8.43434748 15.79604789 8.375 21.5 C8.38660156 22.61503906 8.39820313 23.73007813 8.41015625 24.87890625 C8.38610687 31.60471611 8.0469571 36.60147093 3.375 41.8125 C-0.8650802 43.9325401 -5.42992651 44.78927401 -10.03515625 43.375 C-14.53965798 41.07971249 -16.29846123 38.63557043 -18 34 C-18.4577827 29.82739268 -18.4641683 25.69419683 -18.4375 21.5 C-18.45748047 20.38496094 -18.47746094 19.26992187 -18.49804688 18.12109375 C-18.4942733 11.7890295 -18.37333921 7.73458164 -14 3 C-9.79105745 -1.01416252 -5.52778776 -0.64610506 0 0 Z " fill="#4CDBE3" transform="translate(1851,1678)"/>
<path d="M0 0 C0.67675781 -0.01611328 1.35351562 -0.03222656 2.05078125 -0.04882812 C4.95348865 -0.05169076 7.0108675 -0.0090683 9.47265625 1.609375 C10.5 3.3125 10.5 3.3125 10.4375 6.875 C9.5 10.3125 9.5 10.3125 7.81640625 11.5078125 C4.95014588 12.50351172 2.5325247 12.61362803 -0.5 12.625 C-2.046875 12.65013672 -2.046875 12.65013672 -3.625 12.67578125 C-6.86522846 12.26635021 -8.23700473 11.64504359 -10.5 9.3125 C-10.9375 5.75 -10.9375 5.75 -10.5 2.3125 C-6.88536441 -0.09725706 -4.1778074 -0.01989432 0 0 Z " fill="#4CDBE3" transform="translate(1634.5,1573.6875)"/>
<path d="M0 0 C1.02770508 0.00483398 1.02770508 0.00483398 2.07617188 0.00976562 C3.09807617 -0.0144043 3.09807617 -0.0144043 4.140625 -0.0390625 C7.06786652 -0.04192953 9.12561118 -0.02975389 11.58007812 1.65429688 C13.28657279 4.34312795 13.15355289 6.23297956 12.63867188 9.32226562 C9.60771537 12.45773787 6.31254248 12.60822098 2.13867188 12.82226562 C-1.89804601 12.70771012 -3.1535287 12.46213063 -6.61132812 10.13476562 C-8.36132812 7.32226562 -8.36132812 7.32226562 -8.29882812 4.63476562 C-6.49955296 0.19655356 -4.54033852 0.04901249 0 0 Z " fill="#4CDBE3" transform="translate(1602.361328125,1573.677734375)"/>
<path d="M0 0 C3.4375 0.4375 3.4375 0.4375 5.4375 2.4375 C5.66305081 4.96542663 5.76188591 7.34805576 5.75 9.875 C5.76611328 10.55626953 5.78222656 11.23753906 5.79882812 11.93945312 C5.80168533 14.85665548 5.76525769 16.93796569 4.140625 19.4140625 C2.4375 20.4375 2.4375 20.4375 -1.125 20.375 C-4.5625 19.4375 -4.5625 19.4375 -5.7578125 17.6875 C-7.55102064 12.67348112 -7.19407727 7.29508021 -5.5 2.3125 C-3.5625 0.4375 -3.5625 0.4375 0 0 Z " fill="#4CDBE3" transform="translate(1619.5625,1581.5625)"/>
<path d="M0 0 C1.5171199 3.03423981 1.18439257 6.17504794 1.1875 9.5 C1.19974609 10.18964844 1.21199219 10.87929687 1.22460938 11.58984375 C1.22988695 13.39477494 1.12184458 15.19917842 1 17 C-1 19 -1 19 -4.4375 19.4375 C-8 19 -8 19 -9.9375 17.125 C-11.62205949 12.17041327 -12.07264812 6.69333044 -10.10546875 1.75390625 C-7.57742927 -2.25701151 -4.12065082 -0.82413016 0 0 Z " fill="#4CDBE3" transform="translate(1624,1558)"/>
</svg>
