<svg xmlns="http://www.w3.org/2000/svg" xmlns:xlink="http://www.w3.org/1999/xlink" width="800" zoomAndPan="magnify" viewBox="0 0 600 225" height="300" preserveAspectRatio="xMidYMid meet" version="1.0"><defs><g/><clipPath id="333f8f0f22"><rect x="0" width="462" y="0" height="94"/></clipPath><clipPath id="fec37d2ceb"><path d="M 3.023438 117.464844 L 60.730469 117.464844 L 60.730469 176.714844 L 3.023438 176.714844 Z M 3.023438 117.464844 " clip-rule="nonzero"/></clipPath><clipPath id="6542f79f56"><path d="M 31.746094 117.464844 C 15.882812 117.464844 3.023438 130.742188 3.023438 147.113281 C 3.023438 163.488281 15.882812 176.761719 31.746094 176.761719 C 47.605469 176.761719 60.464844 163.488281 60.464844 147.113281 C 60.464844 130.742188 47.605469 117.464844 31.746094 117.464844 Z M 31.746094 117.464844 " clip-rule="nonzero"/></clipPath><clipPath id="ad77ccb1a2"><path d="M 83.617188 129.976562 L 126.367188 129.976562 L 126.367188 172.726562 L 83.617188 172.726562 Z M 83.617188 129.976562 " clip-rule="nonzero"/></clipPath><clipPath id="9aaa3fbe87"><path d="M 105.140625 129.976562 C 93.253906 129.976562 83.617188 139.613281 83.617188 151.5 C 83.617188 163.386719 93.253906 173.019531 105.140625 173.019531 C 117.027344 173.019531 126.660156 163.386719 126.660156 151.5 C 126.660156 139.613281 117.027344 129.976562 105.140625 129.976562 Z M 105.140625 129.976562 " clip-rule="nonzero"/></clipPath><clipPath id="d59ab62a86"><path d="M 46.652344 48.226562 L 120.574219 48.226562 L 120.574219 122.148438 L 46.652344 122.148438 Z M 46.652344 48.226562 " clip-rule="nonzero"/></clipPath><clipPath id="037d8eae1e"><path d="M 83.613281 48.226562 C 63.203125 48.226562 46.652344 64.773438 46.652344 85.1875 C 46.652344 105.597656 63.203125 122.148438 83.613281 122.148438 C 104.027344 122.148438 120.574219 105.597656 120.574219 85.1875 C 120.574219 64.773438 104.027344 48.226562 83.613281 48.226562 Z M 83.613281 48.226562 " clip-rule="nonzero"/></clipPath></defs><g transform="matrix(1, 0, 0, 1, 136, 71)"><g clip-path="url(#333f8f0f22)"><g fill="#2563eb" fill-opacity="1"><g transform="translate(0.324147, 74.005237)"><g><path d="M 16.640625 0 L 1.515625 -56.34375 L 14.0625 -56.34375 L 20.609375 -28.578125 C 21.160156 -26.234375 21.65625 -23.78125 22.09375 -21.21875 C 22.539062 -18.664062 22.976562 -16.097656 23.40625 -13.515625 C 23.832031 -10.929688 24.25 -8.429688 24.65625 -6.015625 L 22.578125 -6.015625 C 23.023438 -8.429688 23.472656 -10.929688 23.921875 -13.515625 C 24.378906 -16.097656 24.851562 -18.664062 25.34375 -21.21875 C 25.84375 -23.78125 26.367188 -26.234375 26.921875 -28.578125 L 33.84375 -56.34375 L 45.828125 -56.34375 L 52.671875 -28.578125 C 53.253906 -26.234375 53.789062 -23.78125 54.28125 -21.21875 C 54.769531 -18.664062 55.238281 -16.097656 55.6875 -13.515625 C 56.144531 -10.929688 56.601562 -8.429688 57.0625 -6.015625 L 54.90625 -6.015625 C 55.332031 -8.429688 55.757812 -10.929688 56.1875 -13.515625 C 56.613281 -16.097656 57.0625 -18.664062 57.53125 -21.21875 C 58 -23.78125 58.484375 -26.234375 58.984375 -28.578125 L 65.53125 -56.34375 L 78.125 -56.34375 L 62.953125 0 L 49.828125 0 L 42.234375 -29.234375 C 41.472656 -32.234375 40.8125 -35.488281 40.25 -39 C 39.6875 -42.519531 39.050781 -46.195312 38.34375 -50.03125 L 41.25 -50.03125 C 40.5 -46.269531 39.863281 -42.648438 39.34375 -39.171875 C 38.820312 -35.691406 38.171875 -32.378906 37.390625 -29.234375 L 29.796875 0 Z M 16.640625 0 "/></g></g></g><g fill="#2563eb" fill-opacity="1"><g transform="translate(74.346091, 74.005237)"><g><path d="M 1.515625 0 L 20.90625 -56.34375 L 35.953125 -56.34375 L 55.734375 0 L 42.875 0 L 33.875 -27.21875 C 32.789062 -30.75 31.6875 -34.5625 30.5625 -38.65625 C 29.445312 -42.757812 28.257812 -47.265625 27 -52.171875 L 29.640625 -52.171875 C 28.410156 -47.265625 27.265625 -42.75 26.203125 -38.625 C 25.140625 -34.5 24.082031 -30.695312 23.03125 -27.21875 L 14.21875 0 Z M 13.65625 -12.890625 L 13.65625 -22 L 43.59375 -22 L 43.59375 -12.890625 Z M 13.65625 -12.890625 "/></g></g></g><g fill="#2563eb" fill-opacity="1"><g transform="translate(130.639359, 74.005237)"><g><path d="M 25.71875 0.828125 C 21.125 0.828125 17.148438 0.125 13.796875 -1.28125 C 10.441406 -2.695312 7.835938 -4.785156 5.984375 -7.546875 C 4.140625 -10.304688 3.175781 -13.691406 3.09375 -17.703125 L 14.328125 -17.703125 C 14.429688 -15.785156 14.972656 -14.164062 15.953125 -12.84375 C 16.941406 -11.519531 18.265625 -10.519531 19.921875 -9.84375 C 21.585938 -9.175781 23.492188 -8.84375 25.640625 -8.84375 C 27.703125 -8.84375 29.507812 -9.144531 31.0625 -9.75 C 32.613281 -10.351562 33.816406 -11.195312 34.671875 -12.28125 C 35.523438 -13.375 35.953125 -14.625 35.953125 -16.03125 C 35.953125 -17.3125 35.582031 -18.394531 34.84375 -19.28125 C 34.101562 -20.164062 33.003906 -20.921875 31.546875 -21.546875 C 30.097656 -22.179688 28.304688 -22.738281 26.171875 -23.21875 L 20.046875 -24.734375 C 15.097656 -25.890625 11.269531 -27.722656 8.5625 -30.234375 C 5.851562 -32.742188 4.5 -36.039062 4.5 -40.125 C 4.5 -43.519531 5.410156 -46.488281 7.234375 -49.03125 C 9.066406 -51.582031 11.578125 -53.570312 14.765625 -55 C 17.953125 -56.425781 21.613281 -57.140625 25.75 -57.140625 C 29.9375 -57.140625 33.582031 -56.421875 36.6875 -54.984375 C 39.800781 -53.546875 42.226562 -51.539062 43.96875 -48.96875 C 45.707031 -46.394531 46.617188 -43.40625 46.703125 -40 L 35.578125 -40 C 35.378906 -42.34375 34.398438 -44.171875 32.640625 -45.484375 C 30.890625 -46.796875 28.566406 -47.453125 25.671875 -47.453125 C 23.734375 -47.453125 22.054688 -47.164062 20.640625 -46.59375 C 19.234375 -46.03125 18.15625 -45.25 17.40625 -44.25 C 16.664062 -43.257812 16.296875 -42.125 16.296875 -40.84375 C 16.296875 -39.5 16.691406 -38.378906 17.484375 -37.484375 C 18.273438 -36.585938 19.367188 -35.84375 20.765625 -35.25 C 22.171875 -34.664062 23.742188 -34.171875 25.484375 -33.765625 L 30.625 -32.515625 C 33.125 -31.960938 35.410156 -31.222656 37.484375 -30.296875 C 39.566406 -29.378906 41.363281 -28.265625 42.875 -26.953125 C 44.382812 -25.648438 45.539062 -24.101562 46.34375 -22.3125 C 47.15625 -20.519531 47.5625 -18.476562 47.5625 -16.1875 C 47.5625 -12.726562 46.691406 -9.71875 44.953125 -7.15625 C 43.210938 -4.601562 40.71875 -2.632812 37.46875 -1.25 C 34.21875 0.132812 30.300781 0.828125 25.71875 0.828125 Z M 25.71875 0.828125 "/></g></g></g><g fill="#2563eb" fill-opacity="1"><g transform="translate(181.527036, 74.005237)"><g><path d="M 4.875 0 L 4.875 -56.34375 L 16.453125 -56.34375 L 16.453125 -33.609375 L 40.875 -33.609375 L 40.875 -56.34375 L 52.4375 -56.34375 L 52.4375 0 L 40.875 0 L 40.875 -23.9375 L 16.453125 -23.9375 L 16.453125 0 Z M 4.875 0 "/></g></g></g><g fill="#2563eb" fill-opacity="1"><g transform="translate(239.068072, 74.005237)"><g><path d="M 1.703125 0 L 22.234375 -56.34375 L 30.40625 -56.34375 L 51.078125 0 L 43.59375 0 L 31.6875 -33.53125 C 30.925781 -35.65625 30.0625 -38.234375 29.09375 -41.265625 C 28.125 -44.304688 26.945312 -48.207031 25.5625 -52.96875 L 27.03125 -52.96875 C 25.644531 -48.1875 24.453125 -44.25 23.453125 -41.15625 C 22.460938 -38.070312 21.628906 -35.53125 20.953125 -33.53125 L 9.21875 0 Z M 12.09375 -15.734375 L 12.09375 -21.96875 L 40.71875 -21.96875 L 40.71875 -15.734375 Z M 12.09375 -15.734375 "/></g></g></g><g fill="#2563eb" fill-opacity="1"><g transform="translate(292.07269, 74.005237)"><g><path d="M 6.546875 0 L 6.546875 -56.34375 L 26.578125 -56.34375 C 30.484375 -56.34375 33.726562 -55.679688 36.3125 -54.359375 C 38.894531 -53.035156 40.835938 -51.25 42.140625 -49 C 43.441406 -46.757812 44.09375 -44.226562 44.09375 -41.40625 C 44.09375 -39.03125 43.675781 -37.054688 42.84375 -35.484375 C 42.007812 -33.910156 40.898438 -32.644531 39.515625 -31.6875 C 38.128906 -30.726562 36.578125 -30 34.859375 -29.5 L 34.859375 -29.046875 C 36.722656 -28.890625 38.523438 -28.257812 40.265625 -27.15625 C 42.003906 -26.0625 43.445312 -24.515625 44.59375 -22.515625 C 45.738281 -20.515625 46.3125 -18.078125 46.3125 -15.203125 C 46.3125 -12.273438 45.644531 -9.671875 44.3125 -7.390625 C 42.976562 -5.109375 40.898438 -3.304688 38.078125 -1.984375 C 35.253906 -0.660156 31.613281 0 27.15625 0 Z M 13.65625 -6.28125 L 27 -6.28125 C 31.351562 -6.28125 34.507812 -7.117188 36.46875 -8.796875 C 38.425781 -10.472656 39.40625 -12.609375 39.40625 -15.203125 C 39.40625 -17.117188 38.914062 -18.863281 37.9375 -20.4375 C 36.96875 -22.007812 35.585938 -23.253906 33.796875 -24.171875 C 32.015625 -25.097656 29.875 -25.5625 27.375 -25.5625 L 13.65625 -25.5625 Z M 13.65625 -31.609375 L 26.359375 -31.609375 C 28.453125 -31.609375 30.316406 -32 31.953125 -32.78125 C 33.585938 -33.5625 34.878906 -34.671875 35.828125 -36.109375 C 36.773438 -37.546875 37.25 -39.234375 37.25 -41.171875 C 37.25 -43.722656 36.363281 -45.84375 34.59375 -47.53125 C 32.832031 -49.21875 30.148438 -50.0625 26.546875 -50.0625 L 13.65625 -50.0625 Z M 13.65625 -31.609375 "/></g></g></g><g fill="#2563eb" fill-opacity="1"><g transform="translate(342.695749, 74.005237)"><g><path d="M 29.5 0.796875 C 24.65625 0.796875 20.335938 -0.382812 16.546875 -2.75 C 12.753906 -5.125 9.769531 -8.476562 7.59375 -12.8125 C 5.425781 -17.15625 4.34375 -22.257812 4.34375 -28.125 C 4.34375 -34.03125 5.425781 -39.148438 7.59375 -43.484375 C 9.769531 -47.816406 12.753906 -51.175781 16.546875 -53.5625 C 20.335938 -55.945312 24.65625 -57.140625 29.5 -57.140625 C 34.363281 -57.140625 38.675781 -55.945312 42.4375 -53.5625 C 46.207031 -51.175781 49.175781 -47.816406 51.34375 -43.484375 C 53.507812 -39.148438 54.59375 -34.03125 54.59375 -28.125 C 54.59375 -22.257812 53.507812 -17.15625 51.34375 -12.8125 C 49.175781 -8.476562 46.207031 -5.125 42.4375 -2.75 C 38.675781 -0.382812 34.363281 0.796875 29.5 0.796875 Z M 29.5 -5.78125 C 32.875 -5.78125 35.925781 -6.632812 38.65625 -8.34375 C 41.394531 -10.0625 43.578125 -12.582031 45.203125 -15.90625 C 46.828125 -19.238281 47.640625 -23.3125 47.640625 -28.125 C 47.640625 -32.96875 46.828125 -37.054688 45.203125 -40.390625 C 43.578125 -43.734375 41.394531 -46.257812 38.65625 -47.96875 C 35.925781 -49.6875 32.875 -50.546875 29.5 -50.546875 C 26.113281 -50.546875 23.046875 -49.679688 20.296875 -47.953125 C 17.554688 -46.234375 15.375 -43.707031 13.75 -40.375 C 12.125 -37.050781 11.3125 -32.96875 11.3125 -28.125 C 11.3125 -23.3125 12.125 -19.25 13.75 -15.9375 C 15.375 -12.625 17.554688 -10.101562 20.296875 -8.375 C 23.046875 -6.644531 26.113281 -5.78125 29.5 -5.78125 Z M 29.5 -5.78125 "/></g></g></g><g fill="#2563eb" fill-opacity="1"><g transform="translate(401.862177, 74.005237)"><g><path d="M 29.5 0.796875 C 24.65625 0.796875 20.335938 -0.382812 16.546875 -2.75 C 12.753906 -5.125 9.769531 -8.476562 7.59375 -12.8125 C 5.425781 -17.15625 4.34375 -22.257812 4.34375 -28.125 C 4.34375 -34.03125 5.425781 -39.148438 7.59375 -43.484375 C 9.769531 -47.816406 12.753906 -51.175781 16.546875 -53.5625 C 20.335938 -55.945312 24.65625 -57.140625 29.5 -57.140625 C 34.363281 -57.140625 38.675781 -55.945312 42.4375 -53.5625 C 46.207031 -51.175781 49.175781 -47.816406 51.34375 -43.484375 C 53.507812 -39.148438 54.59375 -34.03125 54.59375 -28.125 C 54.59375 -22.257812 53.507812 -17.15625 51.34375 -12.8125 C 49.175781 -8.476562 46.207031 -5.125 42.4375 -2.75 C 38.675781 -0.382812 34.363281 0.796875 29.5 0.796875 Z M 29.5 -5.78125 C 32.875 -5.78125 35.925781 -6.632812 38.65625 -8.34375 C 41.394531 -10.0625 43.578125 -12.582031 45.203125 -15.90625 C 46.828125 -19.238281 47.640625 -23.3125 47.640625 -28.125 C 47.640625 -32.96875 46.828125 -37.054688 45.203125 -40.390625 C 43.578125 -43.734375 41.394531 -46.257812 38.65625 -47.96875 C 35.925781 -49.6875 32.875 -50.546875 29.5 -50.546875 C 26.113281 -50.546875 23.046875 -49.679688 20.296875 -47.953125 C 17.554688 -46.234375 15.375 -43.707031 13.75 -40.375 C 12.125 -37.050781 11.3125 -32.96875 11.3125 -28.125 C 11.3125 -23.3125 12.125 -19.25 13.75 -15.9375 C 15.375 -12.625 17.554688 -10.101562 20.296875 -8.375 C 23.046875 -6.644531 26.113281 -5.78125 29.5 -5.78125 Z M 29.5 -5.78125 "/></g></g></g></g></g><g clip-path="url(#fec37d2ceb)"><g clip-path="url(#6542f79f56)"><path stroke-linecap="butt" transform="matrix(0.75, 0, 0, 0.75, 3.021719, 117.46644)" fill="none" stroke-linejoin="miter" d="M 38.299166 -0.00212874 C 17.148125 -0.00212874 0.00229174 17.700996 0.00229174 39.52912 C 0.00229174 61.362453 17.148125 79.060369 38.299166 79.060369 C 59.444999 79.060369 76.590832 61.362453 76.590832 39.52912 C 76.590832 17.700996 59.444999 -0.00212874 38.299166 -0.00212874 Z M 38.299166 -0.00212874 " stroke="#2563eb" stroke-width="8" stroke-opacity="1" stroke-miterlimit="4"/></g></g><g clip-path="url(#ad77ccb1a2)"><g clip-path="url(#9aaa3fbe87)"><path stroke-linecap="butt" transform="matrix(0.75, 0, 0, 0.75, 83.61831, 129.978067)" fill="none" stroke-linejoin="miter" d="M 28.696421 -0.00200598 C 12.847462 -0.00200598 -0.00149682 12.846953 -0.00149682 28.695912 C -0.00149682 44.544871 12.847462 57.388621 28.696421 57.388621 C 44.54538 57.388621 57.389131 44.544871 57.389131 28.695912 C 57.389131 12.846953 44.54538 -0.00200598 28.696421 -0.00200598 Z M 28.696421 -0.00200598 " stroke="#2563eb" stroke-width="8" stroke-opacity="1" stroke-miterlimit="4"/></g></g><path stroke-linecap="round" transform="matrix(0.617479, 0.425699, -0.425699, 0.617479, 33.742352, 123.536635)" fill="none" stroke-linejoin="miter" d="M 3.657622 5.434254 C 9.708907 1.502801 15.756738 1.521233 21.804074 5.493836 " stroke="#38bdf8" stroke-width="5" stroke-opacity="1" stroke-miterlimit="4"/><path stroke-linecap="round" transform="matrix(0.617479, 0.425699, -0.425699, 0.617479, 106.089956, 133.815547)" fill="none" stroke-linejoin="miter" d="M 3.65945 5.436781 C 9.707778 1.50104 15.758566 1.52376 21.805901 5.496363 " stroke="#38bdf8" stroke-width="5" stroke-opacity="1" stroke-miterlimit="4"/><g clip-path="url(#d59ab62a86)"><g clip-path="url(#037d8eae1e)"><path stroke-linecap="butt" transform="matrix(0.75, 0, 0, 0.75, 46.654119, 48.225572)" fill="none" stroke-linejoin="miter" d="M 49.278885 0.00132068 C 22.065342 0.00132068 -0.00236681 22.063822 -0.00236681 49.282573 C -0.00236681 76.496116 22.065342 98.563825 49.278885 98.563825 C 76.497636 98.563825 98.560137 76.496116 98.560137 49.282573 C 98.560137 22.063822 76.497636 0.00132068 49.278885 0.00132068 Z M 49.278885 0.00132068 " stroke="#2563eb" stroke-width="8" stroke-opacity="1" stroke-miterlimit="4"/></g></g><path stroke-linecap="round" transform="matrix(0.617479, 0.425699, -0.425699, 0.617479, 92.029295, 54.925131)" fill="none" stroke-linejoin="miter" d="M 3.655075 6.223898 C 11.056671 1.241325 18.456713 1.257463 25.859782 6.288133 " stroke="#38bdf8" stroke-width="5" stroke-opacity="1" stroke-miterlimit="4"/></svg>